<svg width="1091" height="417" fill="none" xmlns="http://www.w3.org/2000/svg"><path d="M1 140.807v20.546h11.393l4.431-8.018v3.006h9.494v-36.58l6.963-1.504 1.266 7.016 3.165-11.526.633-20.545 4.43 9.02 2.532-29.566 2.532 13.03 5.697 3.507 3.164-9.02L59.865 92.7l.633 28.563 2.532-30.067 4.43-6.514 7.596 10.523.633-23.552 4.43 2.506v-5.011l3.166 2.505v-8.519l1.898 1.504v-7.016l2.532 4.009 1.9-14.031 1.265 8.018 1.899-3.007v9.521l2.532-1.002.633 9.52 3.798-6.012 5.063 11.525 6.33-6.514 5.696 5.512 3.165 14.03 2.532 47.105 3.798-7.015 5.696 24.053.633-9.02 2.532 6.514 1.899-26.057 1.899 4.51 2.532-11.025 2.532 11.025 3.797-7.016 3.798 9.02 5.064-9.02v19.543l4.431-10.523 2.531 9.02 1.266 13.029 2.532-18.04 1.899 3.007 1.266-15.034 2.532 2.506 3.165-17.038 3.164 12.027 3.798-8.519.633 20.545 2.532-7.015 3.165 11.525 3.165-19.543 4.43 6.515 1.266-3.508 1.266 15.033 2.532-5.011 1.899 16.035 3.165-8.518 1.265 11.024 2.532-8.519 4.431 13.53 1.899-5.512 5.697 21.046 2.531-11.024 2.532 6.013 1.266-4.51 2.532 9.521 1.899-11.525 2.532 7.015 3.164-15.033 5.697 22.55 1.899-13.029 3.165 8.018 3.165-21.047 5.063 35.078 1.899-22.049 2.532 7.517 1.899-9.02 1.266 9.02 3.165-10.523 5.063 11.024 1.899-16.537 3.798 15.535 4.431-18.04 3.797 28.563h3.798l3.798 16.537v6.013l3.165.501 1.898 14.532 3.165-4.009 1.266 11.025 3.165-8.018 1.899 11.525 5.064-1.002.632-8.519 6.963 10.023 5.064-35.078 3.165 14.031 1.898-6.013 3.798 6.514 3.165 22.55 4.431-22.55 1.899 11.526 1.898-15.034 3.798 3.007 2.532 5.512 3.798-.501v-25.556l3.165 2.004 1.265-6.013 3.798 1.002 1.266-4.009 3.798 3.508 1.266-17.539 7.595 28.563 3.165-44.097 1.899 11.525 3.165-2.505.633 15.033 2.532-10.022 5.696 1.002v-8.519h3.798l3.165-5.512 3.797 7.516.633 13.53 3.798-3.006.633 15.534 5.064-18.04 1.899-7.516.633-17.038 6.329 18.04 5.697-4.51v-11.526l1.899 1.003c2.11-8.519 7.215-25.256 10.76-24.054 3.545 1.203 6.963 17.873 8.229 26.058l3.164-12.027.633-31.068 1.899-5.513h3.798l1.266-14.532 3.165 2.506 1.266-19.042 2.531 3.507V51.11h5.064l.633-6.014 3.165 18.04 1.899-7.015h3.797l1.899 9.02h3.798V46.864l3.798-20.31 5.696 14.031 1.266 6.014 2.532-12.027 3.165-2.004 2.532 5.512v-7.517l5.063-2.004V17.033l5.064-8.519 1.266-4.008 5.064 24.554 2.532-13.029 5.063 1.002L540.914 2l3.165 15.033h3.797v4.51h4.431l1.899 5.011.633-9.02 3.798-.5 1.266-6.014 2.531 7.015.633 4.51 5.697-.5 1.266-10.524 3.798 3.508 1.899.5v12.529l3.164-12.027 1.899.501 2.532 5.512 3.798-12.026 5.064 7.015 3.797-11.024 2.532 4.51 1.899-7.517 1.266 3.508h3.798v8.018h3.797l2.532 13.53 1.266-5.011h3.165l1.899-5.513.633 9.02 3.798-8.518h4.43l1.266-2.506 3.798 5.512v8.519h3.165l3.798-8.018h7.595l5.697 9.02 2.531 10.022 5.064 7.517.633 7.517 3.798-.502 1.266-2.505 2.532 6.514h6.329l3.798-3.507h4.431v6.013h4.43l3.798 8.018 1.899 5.01 2.532-17.037 5.064-.501.632-7.016 5.064-1.002 1.266-5.512h6.963l6.329 14.031 4.431-6.013h1.899l.633 20.044 3.797.501.633-7.015h5.697l.633 18.04 4.431-7.016V64.138l4.43-1.504 2.532-9.02 4.431 16.036h5.064l.633-13.03 4.43-1.502v-9.522h3.798V34.572h3.798l4.431-30.568 3.164 19.043.633 9.52 1.266-10.523h1.899l2.532 4.01L792.199 2l3.797 37.082 3.165-7.016h2.532l3.165 34.076 3.165-19.543 2.531 7.516h4.431l1.899-13.029h2.532v8.018h2.831l6.03 21.548 6.33-.501 1.899-11.526 7.595 13.03 6.33-12.529h2.532V74.16l3.797.5 1.899 7.016 3.165-17.037 5.064 13.53 3.164-6.515 3.798-.501 1.899-12.528 2.532 9.02h3.798l1.266 4.51 1.898-8.519h4.431l5.064 14.532.633-24.554 5.063 13.029h3.165l2.532-4.51 5.697 4.51.633 9.521 2.532 6.013 1.898-7.516 3.798 9.02 1.899 6.514 3.798 16.036 8.861-12.528 3.798-12.027 2.532-38.084h4.431l1.265-19.042 1.899 3.006h3.165l1.266-2.004.633 11.526 1.899 2.505 1.266-9.02 3.798 7.517 3.164.5 1.899-11.525 2.532 11.526 3.798.501 3.798 28.062 2.531-4.009 1.266 9.521h2.532l1.899-22.55 1.899 5.011h4.431l4.43-21.547 3.165 11.024h3.797v10.523l2.53-10.022 2.53.502 2.54 7.015h5.69l3.8-13.029 4.43 14.031h5.07l1.26-6.514 2.53 1.503 6.33-11.525 6.97 17.037 1.89-2.004 1.27 13.53 5.06 1.503 3.17 26.058 5.06-20.546h3.8l1.27 11.526 3.79-1.504 7.6 16.537 3.16-15.534 3.17 4.009 2.53-3.508h1.9l.63 4.009 3.17-6.515h5.06l4.43 9.521.63 34.577 4.43-30.568 5.07 9.521 1.9 3.007h3.16l6.33-16.036 1.9 2.005 2.53-3.007 4.43 14.031 2.54-5.01 2.53 1.001 3.16 5.513.63 5.512 1.9-8.018h1.9l4.43 9.02 2.54 29.064 1.89 10.524 1.9-8.519 3.8 1.002.63 52.115 3.17-1.002.63-24.053 5.7 4.009 1.9 2.505 1.26-11.024 2.53-7.016h3.8l3.8 12.027" stroke="#FF1D6E"/><path opacity=".2" d="M12.393 161.353H1V416.5h1183V172.377l-3.8-12.027h-3.8l-2.53 7.016-1.26 11.024-1.9-2.505-5.7-4.009-.63 24.053-3.17 1.002-.63-52.115-3.8-1.002-1.9 8.519-1.89-10.524-2.54-29.064-4.43-9.02h-1.9l-1.9 8.018-.63-5.512-3.16-5.513-2.53-1.002-2.54 5.011-4.43-14.03-2.53 3.006-1.9-2.005-6.33 16.036h-3.16l-1.9-3.007-5.06-9.52-4.44 30.567-.63-34.577-4.43-9.52h-5.06l-3.17 6.514-.63-4.01h-1.9l-2.53 3.509-3.17-4.01-3.16 15.535-7.6-16.537-3.79 1.504-1.27-11.526h-3.8l-5.06 20.546-3.17-26.058-5.06-1.503-1.27-13.53-1.89 2.004-6.97-17.037-6.33 11.525-2.53-1.503-1.26 6.514h-5.07l-4.43-14.03-3.8 13.028h-5.69l-2.54-7.016-2.53-.5-2.53 10.022V44.593h-3.797l-3.165-11.024-4.43 21.547h-4.431l-1.899-5.01-1.899 22.55h-2.532l-1.266-9.522-2.531 4.01-3.798-28.063-3.798-.501-2.532-11.526-1.899 11.526-3.164-.501-3.798-7.517-1.266 9.02-1.899-2.505-.633-11.526-1.266 2.005h-3.165l-1.899-3.007-1.265 19.042h-4.431l-2.532 38.084-3.798 12.027-8.861 12.528-3.798-16.036-1.899-6.514-3.798-9.02-1.898 7.516-2.532-6.013-.633-9.521-5.697-4.51-2.532 4.51h-3.164l-5.064-13.029-.633 24.554-5.064-14.532h-4.431l-1.898 8.52-1.266-4.51h-3.798l-2.532-9.02-1.899 12.527-3.798.501-3.164 6.514-5.064-13.53-3.165 17.038-1.899-7.015-3.797-.501V59.126h-2.532l-6.33 12.528-7.595-13.029-1.899 11.526-6.33.5-6.03-21.547h-2.831v-8.017h-2.532l-1.899 13.028h-4.431l-2.531-7.516-3.165 19.543-3.165-34.075h-2.532l-3.165 7.015L792.199 2l-6.33 24.053-2.532-4.009h-1.899l-1.266 10.524-.633-9.521-3.164-19.043-4.431 30.568h-3.798v11.024h-3.798v9.522l-4.43 1.503-.633 13.029h-5.064l-4.431-16.036-2.532 9.02-4.43 1.504v12.026l-4.431 7.016-.633-18.04h-5.697l-.632 7.015-3.798-.5-.633-20.045h-1.899l-4.431 6.013-6.329-14.031h-6.963l-1.266 5.512-5.064 1.002-.633 7.016-5.063.501-2.532 17.038-1.899-5.011-3.798-8.018h-4.43v-6.013h-4.431l-3.798 3.507h-6.329l-2.532-6.514-1.266 2.505-3.798.502-.633-7.517-5.064-7.517-2.531-10.022-5.697-9.02h-7.595l-3.798 8.018h-3.165v-8.519l-3.798-5.512-1.266 2.505h-4.43l-3.798 8.52-.633-9.02-1.899 5.512h-3.165l-1.266 5.01-2.532-13.53h-3.797V6.51h-3.798l-1.266-3.508-1.899 7.517-2.532-4.51-3.797 11.024-5.064-7.015-3.798 12.026-2.532-5.512-1.899-.501-3.164 12.027V15.53l-1.899-.501-3.798-3.508-1.266 10.523-5.697.502-.632-4.51-2.532-7.016-1.266 6.013-3.798.501-.633 9.02-1.899-5.01h-4.431v-4.51h-3.797L540.914 2l-5.697 15.033-5.063-1.002-2.532 13.029-5.064-24.554-1.266 4.008-5.063 8.52v11.525l-5.064 2.004v7.517l-2.532-5.512-3.165 2.004-2.532 12.027-1.266-6.014-5.696-14.03-3.798 20.309V65.14h-3.798l-1.899-9.02h-3.797l-1.899 7.015-3.165-18.04-.633 6.014h-5.064v17.538l-2.531-3.507-1.266 19.042-3.165-2.506-1.266 14.532h-3.798l-1.899 5.513-.633 31.068-3.164 12.027c-1.266-8.185-4.684-24.855-8.229-26.058-3.544-1.202-8.65 15.535-10.76 24.054l-1.899-1.003v11.526l-5.697 4.51-6.329-18.04-.633 17.038-1.899 7.516-5.064 18.04-.633-15.534-3.798 3.006-.633-13.53-3.797-7.516-3.165 5.512h-3.798v8.519l-5.696-1.002-2.532 10.022-.633-15.033-3.165 2.505-1.899-11.525-3.165 44.097-7.595-28.563-1.266 17.539-3.798-3.508-1.266 4.009-3.798-1.002-1.265 6.013-3.165-2.004v25.556l-3.798.501-2.532-5.512-3.798-3.007-1.898 15.034-1.899-11.526-4.431 22.55-3.165-22.55-3.798-6.514-1.898 6.013-3.165-14.031-5.064 35.078-6.962-10.023-.633 8.519-5.064 1.002-1.899-11.525-3.165 8.018-1.266-11.025-3.165 4.009-1.898-14.532-3.165-.501v-6.013l-3.798-16.537h-3.798l-3.797-28.563-4.431 18.04-3.798-15.535-1.899 16.537-5.063-11.024-3.165 10.523-1.266-9.02-1.899 9.02-2.532-7.517-1.899 22.049-5.063-35.078-3.165 21.047-3.165-8.018-1.899 13.029-5.697-22.55-3.164 15.033-2.532-7.015-1.899 11.525-2.532-9.521-1.266 4.51-2.532-6.013-2.531 11.024-5.697-21.046-1.899 5.512-4.431-13.53-2.532 8.519-1.265-11.024-3.165 8.518-1.899-16.035-2.532 5.011-1.266-15.033-1.266 3.508-4.43-6.515-3.165 19.543-3.165-11.525-2.532 7.015-.633-20.545-3.798 8.519-3.164-12.027-3.165 17.038-2.532-2.506-1.266 15.034-1.899-3.007-2.532 18.04-1.266-13.029-2.531-9.02-4.431 10.523v-19.543l-5.064 9.02-3.798-9.02-3.797 7.016-2.532-11.025-2.532 11.025-1.899-4.51-1.899 26.057-2.532-6.514-.633 9.02-5.696-24.053-3.798 7.015-2.532-47.104-3.165-14.031-5.696-5.512-6.33 6.514-5.063-11.525-3.798 6.013-.633-9.521-2.532 1.002v-9.521l-1.899 3.007-1.266-8.018-1.899 14.03-2.532-4.008v7.016l-1.898-1.504v8.52l-3.165-2.506v5.01l-4.43-2.505-.634 23.552-7.595-10.523-4.431 6.514-2.532 30.067-.633-28.563L56.7 80.173l-3.164 9.02-5.697-3.508-2.532-13.029-2.532 29.566-4.43-9.02-.633 20.545-3.165 11.526-1.266-7.016-6.963 1.504v36.58h-9.494v-3.006l-4.43 8.018z" fill="url(#paint0_linear_169_870)"/><defs><linearGradient id="paint0_linear_169_870" x1="592.5" y1="2" x2="592.5" y2="416.5" gradientUnits="userSpaceOnUse"><stop stop-color="#FF1D6E"/><stop offset=".214" stop-color="#FF1D6E" stop-opacity=".43"/><stop offset=".547" stop-color="#FF1D6E" stop-opacity=".24"/><stop offset="1" stop-color="#FF1D6E" stop-opacity="0"/></linearGradient></defs></svg>