<svg width="16" height="19" fill="none" xmlns="http://www.w3.org/2000/svg"><path d="M8 9.5c.943 0 1.847-.421 2.514-1.172.667-.75 1.041-1.767 1.041-2.828 0-1.06-.374-2.078-1.041-2.828C9.847 1.922 8.943 1.5 8 1.5c-.943 0-1.848.421-2.514 1.172-.667.75-1.042 1.767-1.042 2.828 0 1.06.375 2.078 1.042 2.828C6.152 9.078 7.056 9.5 8 9.5zm4.202 7c1.329 0 2.331-1.653 1.813-3.031-.604-1.607-1.417-2.969-3.28-2.969h-5.47c-1.863 0-2.676 1.362-3.28 2.969-.518 1.378.484 3.031 1.813 3.031h8.404z" fill="#fff"/></svg>