<svg width="94" height="23" fill="none" xmlns="http://www.w3.org/2000/svg"><path d="M15 12.25c-.024-2.757 2.266-4.096 2.366-4.158-1.3-1.879-3.31-2.14-4.014-2.164-1.687-.177-3.327 1.009-4.185 1.009-.874 0-2.205-.986-3.628-.962-1.833.03-3.558 1.085-4.494 2.733-1.942 3.35-.495 8.277 1.369 10.987.936 1.325 2.019 2.81 3.45 2.757 1.392-.054 1.918-.886 3.597-.886 1.67 0 2.158.886 3.612.855 1.5-.023 2.437-1.332 3.342-2.672 1.075-1.517 1.508-3.018 1.524-3.095-.039-.015-2.909-1.109-2.94-4.404zm-2.747-8.1c.75-.932 1.261-2.203 1.122-3.496-1.083.046-2.445.747-3.226 1.663-.688.809-1.307 2.125-1.152 3.365 1.222.092 2.475-.616 3.256-1.532zm22.951 13.384h-1.95l-1.067-3.342h-3.713l-1.013 3.342h-1.895L29.24 6.16h2.274l3.69 11.373zM31.87 12.79l-.967-2.965c-.1-.308-.294-1.016-.572-2.14h-.039a98.509 98.509 0 01-.541 2.14l-.952 2.965h3.071zm12.779.547c0 1.394-.38 2.495-1.145 3.304-.68.723-1.532 1.078-2.537 1.078-1.09 0-1.872-.385-2.352-1.163v4.304h-1.833v-8.832c0-.877-.023-1.77-.07-2.694h1.61l.1 1.3h.03c.612-.977 1.54-1.47 2.778-1.47.975 0 1.779.385 2.429 1.147.665.77.99 1.771.99 3.026zm-1.864.062c0-.8-.178-1.455-.542-1.971a1.877 1.877 0 00-1.593-.809c-.449 0-.859.154-1.23.447a2.06 2.06 0 00-.72 1.17 2.479 2.479 0 00-.085.555v1.37c0 .593.186 1.101.55 1.51.363.407.843.615 1.43.615.689 0 1.223-.27 1.61-.793.386-.53.58-1.224.58-2.094zm11.332-.062c0 1.394-.379 2.495-1.145 3.304-.68.723-1.531 1.078-2.537 1.078-1.09 0-1.872-.385-2.352-1.163v4.304H46.25v-8.832c0-.877-.023-1.77-.07-2.694h1.61l.1 1.3h.031c.611-.977 1.54-1.47 2.777-1.47.975 0 1.78.385 2.429 1.147.665.77.99 1.771.99 3.026zm-1.864.062c0-.8-.178-1.455-.542-1.971a1.878 1.878 0 00-1.593-.809c-.449 0-.859.154-1.23.447a2.11 2.11 0 00-.72 1.17 2.485 2.485 0 00-.084.555v1.37c0 .593.185 1.101.549 1.51.363.407.843.615 1.43.615.69 0 1.23-.27 1.61-.793.394-.53.58-1.224.58-2.094zm12.462.947c0 .97-.34 1.756-1.014 2.364-.742.662-1.779.993-3.11.993-1.23 0-2.212-.238-2.954-.708l.425-1.517c.805.47 1.687.708 2.646.708.688 0 1.23-.154 1.609-.462.386-.308.58-.723.58-1.24a1.6 1.6 0 00-.472-1.162c-.317-.316-.843-.608-1.578-.878-2.019-.747-3.017-1.832-3.017-3.257 0-.931.356-1.694 1.06-2.294C59.594 6.3 60.53 6 61.698 6c1.036 0 1.903.177 2.591.539l-.464 1.478c-.65-.347-1.377-.524-2.197-.524-.642 0-1.152.162-1.516.47a1.363 1.363 0 00-.456 1.032c0 .446.178.824.526 1.109.301.27.858.562 1.663.877.982.393 1.702.855 2.166 1.386.472.532.704 1.194.704 1.98zm6.065-3.642h-2.02v3.98c0 1.01.356 1.518 1.068 1.518.325 0 .595-.031.812-.085l.054 1.386c-.364.13-.835.2-1.423.2-.727 0-1.284-.223-1.694-.662-.41-.439-.611-1.178-.611-2.21v-4.135h-1.2V9.334h1.2V7.832l1.794-.539v2.04h2.02v1.371zm9.08 2.664c0 1.263-.364 2.295-1.083 3.103-.758.832-1.764 1.248-3.017 1.248-1.207 0-2.173-.4-2.893-1.194-.72-.793-1.075-1.801-1.075-3.018 0-1.27.371-2.31 1.106-3.118.743-.809 1.74-1.217 2.994-1.217 1.206 0 2.181.4 2.916 1.201.704.77 1.052 1.771 1.052 2.995zm-1.895.039c0-.755-.163-1.394-.488-1.933-.386-.654-.936-.978-1.647-.978-.735 0-1.3.324-1.679.978-.332.54-.487 1.194-.487 1.971 0 .755.162 1.402.487 1.933.395.654.952.978 1.663.978.697 0 1.246-.331 1.648-.993.333-.555.503-1.202.503-1.956zm7.851-2.472a3.407 3.407 0 00-.58-.046c-.642 0-1.145.239-1.493.724-.301.423-.456.97-.456 1.617v4.304h-1.833v-5.621c0-.947-.016-1.81-.055-2.58h1.594l.07 1.571h.054c.193-.539.495-.978.912-1.3.41-.294.851-.44 1.323-.44.17 0 .325.016.456.031l.008 1.74zM94 13.045c0 .323-.023.6-.07.824h-5.492c.024.808.287 1.432.797 1.855.464.378 1.06.57 1.795.57.812 0 1.555-.13 2.22-.385l.286 1.263c-.781.339-1.702.508-2.761.508-1.277 0-2.282-.377-3.01-1.124-.727-.747-1.09-1.756-1.09-3.01 0-1.233.34-2.264 1.02-3.088.713-.878 1.672-1.317 2.878-1.317 1.184 0 2.089.439 2.692 1.317.488.708.735 1.563.735 2.587zm-1.748-.47c.015-.539-.108-1.008-.356-1.401-.317-.508-.804-.762-1.454-.762-.596 0-1.083.246-1.454.739a2.73 2.73 0 00-.542 1.416l3.806.008z" opacity=".5" fill="#fff"/></svg>