<svg width="24" height="24" fill="none" xmlns="http://www.w3.org/2000/svg"><path fill-rule="evenodd" clip-rule="evenodd" d="M15.97 12.97a.75.75 0 011.06 0l3 3a.75.75 0 010 1.06l-3 3a.75.75 0 11-1.06-1.06l2.47-2.47-2.47-2.47a.75.75 0 010-1.06z" fill="#fff"/><path fill-rule="evenodd" clip-rule="evenodd" d="M3.75 16.5a.75.75 0 01.75-.75h15a.75.75 0 010 1.5h-15a.75.75 0 01-.75-.75zM8.03 3.97a.75.75 0 010 1.06L5.56 7.5l2.47 2.47a.75.75 0 11-1.06 1.06l-3-3a.75.75 0 010-1.06l3-3a.75.75 0 011.06 0z" fill="#fff"/><path fill-rule="evenodd" clip-rule="evenodd" d="M3.75 7.5a.75.75 0 01.75-.75h15a.75.75 0 010 1.5h-15a.75.75 0 01-.75-.75z" fill="#fff"/></svg>