<svg width="59" height="59" fill="none" xmlns="http://www.w3.org/2000/svg"><path d="M25.485 2.853c2.084-2.519 5.946-2.519 8.03 0a5.21 5.21 0 005.831 1.563c3.065-1.14 6.41.791 6.955 4.015a5.211 5.211 0 004.268 4.269c3.224.545 5.155 3.89 4.015 6.954a5.21 5.21 0 001.563 5.831c2.519 2.084 2.519 5.946 0 8.03a5.21 5.21 0 00-1.563 5.831c1.14 3.065-.791 6.41-4.015 6.955a5.211 5.211 0 00-4.269 4.268c-.545 3.224-3.89 5.155-6.954 4.015a5.21 5.21 0 00-5.831 1.563c-2.084 2.519-5.946 2.519-8.03 0a5.21 5.21 0 00-5.831-1.563c-3.065 1.14-6.41-.791-6.954-4.015A5.211 5.211 0 008.43 46.3c-3.223-.545-5.154-3.89-4.014-6.954a5.21 5.21 0 00-1.563-5.831c-2.519-2.084-2.519-5.946 0-8.03a5.21 5.21 0 001.563-5.831c-1.14-3.065.791-6.41 4.015-6.954A5.211 5.211 0 0012.7 8.43c.545-3.223 3.89-5.154 6.954-4.014a5.21 5.21 0 005.831-1.563z" fill="#2962FF"/></svg>