<svg width="200" height="63" fill="none" xmlns="http://www.w3.org/2000/svg"><path fill-rule="evenodd" clip-rule="evenodd" d="M31.835 21.531c.371.689 7.43 6.565 9.754 5.479 3.51-1.64 2.59-19.013 1.119-21.01-1.547 7.756-8.844 9.04-10.873 15.531zM22.059 52.56c-.125.795.088 1.589.48 2.28.237.042.602.276.946.627.385.392.627.812.621 1.044.478.31.97.49 1.396.489.41 0 .876-.172 1.33-.464-.024-.227.22-.663.62-1.07.355-.362.733-.6.969-.63.392-.688.617-1.477.528-2.267-1.907-1.282-4.989-1.397-6.89-.01zm12.707-2.854c1.08-4.95 8.072-4.141 9.504-10.115.13-.541.7-4.553.73-5.215-.924 4.655-1.34 7.29-6.237 10.391-1.712 1.085-3.454 1.762-3.997 4.938z" fill="#fff"/><path fill-rule="evenodd" clip-rule="evenodd" d="M29.967 45.002c1.182-4.875 2.748-5.843 3.073-5.995 1.902-.892 3.843-1.952 5.726-2.912l2.41-3.931c-.613 2.271-1.016 4.066-1.68 6.296-.204.686-.326 1.035-.787 1.562-.532.608-1.579 1.716-2.595 2.277-1.446.799-4.46 1.843-4.46 1.843l-1.687.86z" fill="#CFCFCF"/><mask id="mask0_235_106" style="mask-type:luminance" maskUnits="userSpaceOnUse" x="29" y="32" width="13" height="14"><path d="M29.969 45.002c1.182-4.875 2.748-5.843 3.073-5.995 1.902-.892 3.843-1.952 5.725-2.912l2.411-3.931c-.613 2.271-1.017 4.066-1.68 6.296-.204.686-.326 1.035-.787 1.562-.532.608-1.579 1.716-2.595 2.277-1.447.799-4.46 1.843-4.46 1.843l-1.687.86z" fill="#fff"/></mask><g mask="url(#mask0_235_106)"><path fill-rule="evenodd" clip-rule="evenodd" d="M35.065 38.016c1.383 0 2.504 1.142 2.504 2.552 0 1.41-1.12 2.552-2.504 2.552-1.382 0-2.503-1.143-2.503-2.552 0-1.41 1.12-2.552 2.503-2.552z" fill="#F26B35"/><mask id="mask1_235_106" style="mask-type:luminance" maskUnits="userSpaceOnUse" x="32" y="38" width="6" height="6"><path d="M35.065 38.016c1.383 0 2.504 1.142 2.504 2.552 0 .253-.036.498-.104.729-.422.381-.89.748-1.35 1.002-.437.242-1.017.505-1.614.756-1.11-.26-1.94-1.276-1.94-2.487 0-.603.205-1.156.548-1.593a70.006 70.006 0 001.948-.96h.008z" fill="#fff"/></mask><g mask="url(#mask1_235_106)"><path fill-rule="evenodd" clip-rule="evenodd" d="M36.666 38.524c.448.373.776.9.898 1.522.279 1.423-.628 2.808-2.025 3.092a2.558 2.558 0 01-2.639-1.1 2.54 2.54 0 002.137.541c1.397-.284 2.303-1.668 2.024-3.092a2.647 2.647 0 00-.395-.963z" fill="#C95C31"/></g></g><path fill-rule="evenodd" clip-rule="evenodd" d="M21.033 45.002c-1.326-5.467-3.134-6.02-3.134-6.02l-5.665-2.887-2.41-3.931c.613 2.271 1.016 4.066 1.679 6.296.204.686.326 1.035.787 1.562.532.608 1.579 1.716 2.596 2.277 1.446.799 4.46 1.843 4.46 1.843l1.687.86zm-1.867-23.471c-.372.689-7.43 6.565-9.754 5.479C5.902 25.37 6.82 7.997 8.293 6c1.547 7.756 8.844 9.04 10.873 15.531zm19.97 18.941c-1.534 2.278-4.583 3.974-7.346 4.509-.419.08-.781.45-1.396.682.4-.241.971-.727 1.401-.867 2.508-.814 5.526-2.44 7.341-4.324zm-3.424-.055a.724.724 0 01-.71.83.724.724 0 01-.717-.73.73.73 0 01.443-.676.722.722 0 00.71.631c.097 0 .19-.02.274-.055z" fill="#fff"/><path d="M35.303 40.192c.2 0 .361-.164.361-.368a.365.365 0 00-.361-.368c-.2 0-.362.164-.362.368s.162.368.362.368z" fill="#FEFEFE"/><path fill-rule="evenodd" clip-rule="evenodd" d="M16.235 49.706c-1.08-4.95-8.073-4.141-9.504-10.115-.13-.541-.701-4.553-.731-5.215.924 4.655 1.34 7.29 6.237 10.391 1.712 1.085 3.455 1.762 3.998 4.938z" fill="#fff"/><path d="M35.656 40.29a.1.1 0 00.098-.1.1.1 0 00-.098-.1.099.099 0 00-.098.1.1.1 0 00.098.1z" fill="#FEFEFE"/><path fill-rule="evenodd" clip-rule="evenodd" d="M38.867 36.3l2.31-4.136-2.411 3.931-5.18 2.64-.485.247c-.653.264-1.221 1.084-1.72 1.99-.568 1.03-1.04 2.373-1.414 4.03.972-2.56 2.043-4.38 3.212-5.455l5.688-3.247z" fill="#C95C31"/><path d="M60.063 45.254c.89 0 1.608-.751 1.608-1.69 0-.932-.717-1.683-1.608-1.683h-.526V20.684c0-.933-.718-1.684-1.614-1.684h-2.308c-.897 0-1.614.751-1.614 1.684 0 1.395.945 1.69 2.314 1.69v21.19c0 .939.717 1.69 1.608 1.69h2.14zm21.874.056c.89 0 1.608-.75 1.608-1.69v-9.493c0-4.55-3.54-8.255-7.88-8.255h-2.63c-4.34 0-7.86 3.705-7.86 8.255v9.494c0 .938.717 1.69 1.613 1.69.891 0 1.608-.752 1.608-1.69v-9.495c0-2.678 2.087-4.862 4.64-4.862h2.63c2.558 0 4.639 2.184 4.639 4.863v9.494c0 .938.735 1.69 1.632 1.69zm6.725 0c.891 0 1.626-.75 1.626-1.69V20.685c0-.933-.735-1.684-1.626-1.684-.896 0-1.614.751-1.614 1.684V43.62c0 .938.718 1.69 1.614 1.69zm7.126 0c.89 0 1.614-.77 1.614-1.708V27.637c0-.939-.723-1.69-1.614-1.69-.89 0-1.626.751-1.626 1.69v15.965c0 .939.735 1.708 1.626 1.708zm-.125-21.178c1.034 0 1.859-.883 1.859-1.959 0-1.083-.825-1.946-1.86-1.946-1.028 0-1.87.863-1.87 1.946 0 1.077.842 1.959 1.87 1.959zm10.408 5.132h19.65v7.61c0 1.483.346 2.86 1.07 4.105a8.371 8.371 0 002.815 3.01 7.822 7.822 0 003.958 1.228h2.702a7.822 7.822 0 003.958-1.227c1.171-.751 2.116-1.759 2.833-3.01.7-1.246 1.052-2.623 1.052-4.106v-3.08a1.678 1.678 0 00-.508-1.176 1.58 1.58 0 00-1.136-.457h-.036c-.436.02-.807.2-1.105.514a1.687 1.687 0 00-.455 1.176v3.023c0 1.32-.436 2.46-1.333 3.41-.891.952-2.015 1.465-3.324 1.54h-2.576c-1.316-.075-2.433-.588-3.33-1.54-.891-.95-1.345-2.09-1.345-3.41v-7.61h2.887c.437 0 .825-.163 1.142-.513.311-.326.472-.733.472-1.19 0-.456-.161-.863-.472-1.195a1.555 1.555 0 00-1.142-.494h-25.777c-1.387 0-2.577.513-3.557 1.54-.999 1.026-1.489 2.277-1.489 3.723v.883c0 1.445.49 2.69 1.489 3.717.98 1.033 2.17 1.546 3.557 1.546h8.512c.628 0 1.172.219 1.609.676.436.457.651 1.007.651 1.652 0 .638-.215 1.17-.651 1.627-.437.463-.981.701-1.591.701h-11.597a1.51 1.51 0 00-1.136.494 1.665 1.665 0 00-.472 1.19c0 .456.155.863.472 1.195.311.325.699.494 1.136.494h11.597c1.501 0 2.798-.55 3.868-1.67 1.07-1.12 1.614-2.454 1.614-4.031 0-1.577-.544-2.916-1.614-4.037-1.07-1.12-2.367-1.665-3.868-1.665h-8.53c-.509 0-.933-.187-1.28-.55a1.851 1.851 0 01-.526-1.34v-.882c0-.513.173-.951.526-1.32a1.703 1.703 0 011.28-.551zm43.538 16.046c.891 0 1.614-.77 1.614-1.708V27.637c0-.939-.723-1.69-1.614-1.69-.891 0-1.626.751-1.626 1.69v15.965c0 .939.735 1.708 1.626 1.708zm-.125-21.178c1.034 0 1.859-.883 1.859-1.959 0-1.083-.825-1.946-1.859-1.946-1.029 0-1.872.863-1.872 1.946 0 1.077.843 1.959 1.872 1.959zm22.125 21.178c.89 0 1.608-.75 1.608-1.69v-9.493c0-4.55-3.539-8.255-7.879-8.255h-2.631c-4.34 0-7.861 3.705-7.861 8.255v9.494c0 .938.718 1.69 1.614 1.69.891 0 1.608-.752 1.608-1.69v-9.495c0-2.678 2.087-4.862 4.639-4.862h2.631c2.558 0 4.639 2.184 4.639 4.863v9.494c0 .938.735 1.69 1.632 1.69zm16.738 8.545c3.713 0 6.762-3.173 6.762-7.078V34.214c0-4.487-3.52-8.361-7.844-8.361h-2.696c-4.328.131-7.849 3.874-7.849 8.361v2.735c0 4.544 3.539 8.249 7.879 8.249h2.631c1.733 0 3.323-.589 4.639-1.596v3.175c0 2.034-1.573 3.686-3.522 3.686h-9.003c-.89 0-1.608.77-1.608 1.703 0 .938.718 1.69 1.608 1.69h9.003zm-1.117-12.03h-2.631c-2.552 0-4.639-2.179-4.639-4.876v-2.735c0-2.653 2.087-4.875 4.657-4.969h2.577c2.576.094 4.675 2.316 4.675 4.97v2.734c0 2.697-2.081 4.875-4.639 4.875z" fill="#fff"/><mask id="mask2_235_106" style="mask-type:luminance" maskUnits="userSpaceOnUse" x="54" y="19" width="142" height="35"><path d="M60.062 45.254c.89 0 1.608-.751 1.608-1.69 0-.932-.717-1.683-1.608-1.683h-.526V20.684c0-.933-.718-1.684-1.614-1.684h-2.308c-.897 0-1.614.751-1.614 1.684 0 1.395.945 1.69 2.314 1.69v21.19c0 .939.717 1.69 1.608 1.69h2.14zm21.874.056c.89 0 1.608-.75 1.608-1.69v-9.493c0-4.55-3.54-8.255-7.88-8.255h-2.63c-4.34 0-7.86 3.705-7.86 8.255v9.494c0 .938.717 1.69 1.613 1.69.891 0 1.608-.752 1.608-1.69v-9.495c0-2.678 2.087-4.862 4.64-4.862h2.63c2.558 0 4.639 2.184 4.639 4.863v9.494c0 .938.735 1.69 1.632 1.69zm6.725 0c.891 0 1.626-.75 1.626-1.69V20.685c0-.933-.735-1.684-1.626-1.684-.896 0-1.614.751-1.614 1.684V43.62c0 .938.718 1.69 1.614 1.69zm7.126 0c.89 0 1.614-.77 1.614-1.708V27.637c0-.939-.723-1.69-1.614-1.69-.89 0-1.626.751-1.626 1.69v15.965c0 .939.736 1.708 1.626 1.708zm-.125-21.178c1.034 0 1.859-.883 1.859-1.959 0-1.083-.825-1.946-1.86-1.946-1.028 0-1.87.863-1.87 1.946 0 1.077.842 1.959 1.87 1.959zm10.408 5.132h19.65v7.61c0 1.483.346 2.86 1.07 4.105a8.371 8.371 0 002.815 3.01 7.822 7.822 0 003.958 1.228h2.702a7.822 7.822 0 003.958-1.227c1.171-.751 2.116-1.759 2.833-3.01.7-1.246 1.052-2.623 1.052-4.106v-3.08a1.678 1.678 0 00-.508-1.176 1.58 1.58 0 00-1.136-.457h-.036c-.436.02-.807.2-1.105.514a1.687 1.687 0 00-.455 1.176v3.023c0 1.32-.436 2.46-1.333 3.41-.891.952-2.015 1.465-3.324 1.54h-2.576c-1.316-.075-2.433-.588-3.33-1.54-.891-.95-1.345-2.09-1.345-3.41v-7.61h2.887c.437 0 .825-.163 1.142-.513.311-.326.472-.733.472-1.19 0-.456-.161-.863-.472-1.195a1.555 1.555 0 00-1.142-.494H106.07c-1.387 0-2.577.513-3.557 1.54-.999 1.026-1.489 2.277-1.489 3.723v.883c0 1.445.49 2.69 1.489 3.717.98 1.033 2.17 1.546 3.557 1.546h8.512c.628 0 1.172.219 1.609.676.436.457.651 1.007.651 1.652 0 .638-.215 1.17-.651 1.627-.437.463-.981.701-1.591.701h-11.597a1.51 1.51 0 00-1.136.494 1.665 1.665 0 00-.472 1.19c0 .456.155.863.472 1.195.311.325.699.494 1.136.494H114.6c1.501 0 2.798-.55 3.868-1.67 1.07-1.12 1.614-2.454 1.614-4.031 0-1.577-.544-2.916-1.614-4.037-1.07-1.12-2.367-1.665-3.868-1.665h-8.53c-.509 0-.933-.187-1.28-.55a1.851 1.851 0 01-.526-1.34v-.882c0-.513.173-.951.526-1.32a1.703 1.703 0 011.28-.551zm43.538 16.046c.891 0 1.614-.77 1.614-1.708V27.637c0-.939-.723-1.69-1.614-1.69-.89 0-1.626.751-1.626 1.69v15.965c0 .939.736 1.708 1.626 1.708zm-.125-21.178c1.034 0 1.859-.883 1.859-1.959 0-1.083-.825-1.946-1.859-1.946-1.029 0-1.872.863-1.872 1.946 0 1.077.843 1.959 1.872 1.959zm22.125 21.178c.89 0 1.608-.75 1.608-1.69v-9.493c0-4.55-3.539-8.255-7.879-8.255h-2.631c-4.34 0-7.861 3.705-7.861 8.255v9.494c0 .938.718 1.69 1.614 1.69.891 0 1.608-.752 1.608-1.69v-9.495c0-2.678 2.087-4.862 4.639-4.862h2.631c2.558 0 4.639 2.184 4.639 4.863v9.494c0 .938.735 1.69 1.632 1.69zm16.738 8.545c3.713 0 6.762-3.173 6.762-7.078V34.214c0-4.487-3.52-8.361-7.844-8.361h-2.696c-4.328.131-7.849 3.874-7.849 8.361v2.735c0 4.544 3.539 8.249 7.879 8.249h2.631c1.733 0 3.323-.589 4.639-1.596v3.175c0 2.034-1.573 3.686-3.522 3.686h-9.003c-.89 0-1.608.77-1.608 1.703 0 .938.718 1.69 1.608 1.69h9.003zm-1.117-12.03h-2.631c-2.552 0-4.639-2.179-4.639-4.876v-2.735c0-2.653 2.087-4.875 4.657-4.969h2.577c2.576.094 4.675 2.316 4.675 4.97v2.734c0 2.697-2.081 4.875-4.639 4.875z" fill="#fff"/></mask><g mask="url(#mask2_235_106)" fill="#F26B35"><path d="M96.084 24.554c1.754 0 3.175-1.21 3.175-2.701 0-1.492-1.421-2.7-3.175-2.7-1.753 0-3.175 1.208-3.175 2.7 0 1.491 1.422 2.7 3.175 2.7zm52.855.623c2.046 0 3.704-1.473 3.704-3.29 0-1.816-1.658-3.289-3.704-3.289-2.046 0-3.705 1.473-3.705 3.29 0 1.816 1.659 3.29 3.705 3.29z"/></g><path d="M132.619 53.89h1.032v-2.934h.812v-.927h-2.655v.927h.811v2.934zm2.212 0h1.033v-1.274l.779 1.274h1.249l-1.033-1.544c.348-.127.774-.43.774-1.159 0-.176-.042-1.158-1.274-1.158h-1.528v3.86zm1.033-2.124v-.887h.253c.368 0 .484.226.484.44 0 .227-.116.447-.484.447h-.253zM139.809 54c1.538 0 1.623-1.258 1.623-1.671v-2.3h-1.033v2.278c0 .237-.042.766-.59.766-.548 0-.59-.529-.59-.766v-2.278h-1.032v2.3c0 .413.084 1.671 1.622 1.671zm4.557-3.7a1.87 1.87 0 00-1.122-.38c-.864 0-1.296.54-1.296 1.163 0 .832.585 1.048.879 1.141.39.127.706.171.706.524 0 .232-.173.325-.363.325-.306 0-.627-.22-.917-.513l-.49.822c.532.453.906.618 1.38.618.864 0 1.386-.502 1.386-1.269 0-.91-.606-1.158-1.148-1.29-.185-.044-.438-.11-.438-.342 0-.137.074-.33.385-.33.263 0 .495.176.669.341l.369-.81zm1.158 3.59h1.033v-2.934h.811v-.927h-2.655v.927h.811v2.934zm3.44-3.86v3.86h1.886c.853 0 1.206-.535 1.206-1.076 0-.706-.537-.926-.779-.987v-.011c.3-.11.574-.397.574-.805 0-.298-.1-.982-1.101-.982h-1.786zm1.033 1.521v-.75h.432c.352 0 .474.182.474.386 0 .144-.069.364-.474.364h-.432zm0 1.566v-.793h.474c.168 0 .553 0 .553.386 0 .402-.395.407-.553.407h-.474zm4.124.883c1.538 0 1.623-1.258 1.623-1.671v-2.3h-1.033v2.278c0 .237-.042.766-.59.766-.548 0-.59-.529-.59-.766v-2.278h-1.032v2.3c0 .413.084 1.671 1.622 1.671zm2.766-.11h1.032v-2.934h.812v-.927h-2.656v.927h.812v2.934zm6.158-1.274c-.19.204-.49.419-.875.419-.59 0-.943-.458-.943-1.042 0-.635.374-1.109.943-1.109.395 0 .685.232.875.463v-1.12a1.769 1.769 0 00-1.012-.308c-1.001 0-1.87.75-1.87 2.04 0 1.236.79 2.041 1.886 2.041.316 0 .664-.05.996-.287v-1.097zm.516 1.274h1.032v-1.544h1.254v1.544h1.032v-3.86h-1.032v1.39h-1.254v-1.39h-1.032v3.86zm3.982 0h2.213v-.927h-1.18v-.617h1.069v-.85h-1.069v-.54h1.18v-.927h-2.213v3.86zm5.484-1.274c-.19.204-.49.419-.874.419-.59 0-.943-.458-.943-1.042 0-.635.374-1.109.943-1.109.395 0 .684.232.874.463v-1.12a1.768 1.768 0 00-1.011-.308c-1.001 0-1.87.75-1.87 2.04 0 1.236.79 2.041 1.885 2.041.316 0 .664-.05.996-.287v-1.097zm.516 1.274h1.033v-1.66l1.069 1.66h1.291l-1.438-1.991 1.401-1.87h-1.212l-1.111 1.622v-1.622h-1.033v3.86z" fill="#F58634"/></svg>