<svg width="18" height="18" fill="none" xmlns="http://www.w3.org/2000/svg"><path fill-rule="evenodd" clip-rule="evenodd" d="M9.38 1.144a.574.574 0 00-.76 0L7.268 2.332a.575.575 0 01-.464.138L5.03 2.208a.578.578 0 00-.64.414l-.5 1.738a.582.582 0 01-.316.37l-1.633.747a.586.586 0 00-.316.698l.51 1.735a.59.59 0 01-.07.483l-.972 1.52a.588.588 0 00.108.76l1.22 1.182a.587.587 0 01.2.444l-.004 1.81c0 .291.212.539.498.58l1.913.253c.167.023.316.12.407.263L6.4 16.73a.575.575 0 00.73.217l1.628-.756a.573.573 0 01.484 0l1.629.756c.262.121.573.03.729-.216l.966-1.526a.574.574 0 01.406-.263l1.93-.254a.582.582 0 00.498-.58l-.005-1.81c0-.17.073-.332.201-.443l1.203-1.182a.588.588 0 00.108-.76l-.973-1.52a.59.59 0 01-.068-.483l.509-1.735a.586.586 0 00-.316-.698l-1.633-.748a.583.583 0 01-.316-.369l-.5-1.738a.578.578 0 00-.64-.414l-1.774.262a.576.576 0 01-.464-.138L9.38 1.144zM7.848 12L13 7.045 11.914 6 7.848 9.91 6.086 8.216 5 9.261 7.848 12z" fill="#fff"/></svg>