<svg width="20" height="20" fill="none" xmlns="http://www.w3.org/2000/svg"><path fill-rule="evenodd" clip-rule="evenodd" d="M10 2.5a5 5 0 100 10 5 5 0 000-10zm-6.25 5a6.25 6.25 0 1112.5 0 6.25 6.25 0 01-12.5 0z" fill="#fff"/><path fill-rule="evenodd" clip-rule="evenodd" d="M4.7 1.316a.625.625 0 010 .884 7.496 7.496 0 0010.6 10.6.625.625 0 01.884.884A8.745 8.745 0 113.815 1.316a.625.625 0 01.884 0zm2.175 16.809c0-.345.28-.625.625-.625h5a.625.625 0 110 1.25h-5a.625.625 0 01-.625-.625z" fill="#fff"/><path fill-rule="evenodd" clip-rule="evenodd" d="M10 15c.345 0 .625.28.625.625v2.5a.625.625 0 11-1.25 0v-2.5c0-.345.28-.625.625-.625z" fill="#fff"/></svg>