<svg width="92" height="18" fill="none" xmlns="http://www.w3.org/2000/svg"><path opacity=".4" d="M90.344 7.571l-1.7 4.298h-.051L86.818 7.57h-1.604l2.659 6.008-1.52 3.341h1.56l4.098-9.349h-1.666zM78.326 4.005H76.84v9.911h1.486V4.005zm-5.59 0h-3.572v9.911h1.497v-3.752h2.08a3.192 3.192 0 002.287-.858 3.143 3.143 0 00.99-2.218 3.13 3.13 0 00-.991-2.223 3.178 3.178 0 00-2.291-.86zm.04 4.776H70.66V5.406h2.12c.451 0 .884.177 1.203.494a1.68 1.68 0 010 2.386 1.708 1.708 0 01-1.203.495h-.005zm9.212-1.423a2.818 2.818 0 00-1.558.366c-.472.27-.855.67-1.1 1.152l1.326.563a1.415 1.415 0 011.36-.72 1.44 1.44 0 011.05.315 1.42 1.42 0 01.515.962v.1a3.269 3.269 0 00-1.548-.387c-1.422 0-2.874.776-2.874 2.25 0 1.327 1.162 2.182 2.478 2.182a2.09 2.09 0 001.081-.224c.333-.17.614-.427.812-.743h.057v.765h1.451v-3.814c0-1.76-1.326-2.74-3.039-2.74l-.01-.027zm-.176 5.433c-.487 0-1.168-.247-1.168-.844 0-.764.845-1.057 1.582-1.057.475-.013.945.102 1.36.332a1.79 1.79 0 01-.59 1.114c-.326.289-.747.45-1.184.455zM28.057 14.13a5.385 5.385 0 01-3.774-1.523 5.3 5.3 0 01-1.606-3.714 5.3 5.3 0 011.606-3.714 5.385 5.385 0 013.774-1.523 5.086 5.086 0 013.634 1.446l-1.026 1.007a3.706 3.706 0 00-2.608-1.046 3.853 3.853 0 00-2.714 1.115 3.793 3.793 0 00-1.124 2.693 3.79 3.79 0 001.124 2.692 3.853 3.853 0 002.714 1.116 3.568 3.568 0 002.676-1.052c.461-.494.74-1.129.788-1.8h-3.464v-1.39h4.875c.053.296.078.595.074.895a4.687 4.687 0 01-1.253 3.375 4.893 4.893 0 01-3.696 1.423zm12.49-3.375a3.318 3.318 0 01-.936 2.45 3.369 3.369 0 01-2.43 1.028 3.39 3.39 0 01-2.43-1.027 3.336 3.336 0 01-.934-2.451 3.316 3.316 0 01.935-2.45 3.368 3.368 0 012.43-1.028 3.39 3.39 0 012.429 1.027 3.337 3.337 0 01.935 2.451zm-1.475 0a1.871 1.871 0 00-.486-1.446 1.898 1.898 0 00-1.405-.616 1.912 1.912 0 00-1.404.616 1.88 1.88 0 00-.486 1.446 1.87 1.87 0 00.486 1.446 1.899 1.899 0 001.404.617 1.91 1.91 0 001.405-.617 1.88 1.88 0 00.486-1.446zm9.014 0c0 .885-.354 1.733-.984 2.359a3.376 3.376 0 01-2.378.977 3.376 3.376 0 01-2.377-.977 3.323 3.323 0 01-.985-2.359c0-.885.355-1.733.985-2.359a3.375 3.375 0 012.377-.977 3.38 3.38 0 012.378.977c.63.626.984 1.474.984 2.359zm-1.468 0a1.87 1.87 0 00-.486-1.446 1.899 1.899 0 00-1.405-.616 1.911 1.911 0 00-1.405.616 1.882 1.882 0 00-.486 1.446 1.871 1.871 0 00.486 1.446 1.898 1.898 0 001.405.617 1.912 1.912 0 001.405-.617 1.88 1.88 0 00.486-1.446zm8.827-3.167v6.058c0 2.486-1.491 3.51-3.249 3.51a3.278 3.278 0 01-1.814-.529 3.24 3.24 0 01-1.213-1.44l1.287-.562c.133.343.366.64.668.853.303.213.662.333 1.033.345 1.134 0 1.825-.692 1.825-1.98v-.484h-.056a2.337 2.337 0 01-1.77.771 3.415 3.415 0 01-2.405-.989 3.362 3.362 0 01-.996-2.386c0-.895.358-1.754.996-2.386a3.415 3.415 0 012.406-.989 2.386 2.386 0 011.791.754h.057V7.57h1.44v.017zm-1.321 3.184a1.893 1.893 0 00-.47-1.412 1.92 1.92 0 00-1.35-.647 1.986 1.986 0 00-1.388.633 1.953 1.953 0 00-.517 1.426 1.929 1.929 0 00.522 1.413 1.955 1.955 0 001.383.617 1.91 1.91 0 001.346-.63 1.882 1.882 0 00.474-1.4zm3.946-6.756v9.906h-1.497V4.016h1.497zm5.896 7.853l1.167.765c-.311.461-.733.84-1.228 1.1a3.422 3.422 0 01-1.606.396 3.314 3.314 0 01-2.398-.978 3.267 3.267 0 01-.941-2.397 3.088 3.088 0 01.611-2.128 3.132 3.132 0 011.885-1.183 3.15 3.15 0 012.2.362 3.11 3.11 0 011.398 1.723l.153.388-4.535 1.862c.141.315.374.58.67.763.294.183.638.274.985.26a1.962 1.962 0 001.639-.933zm-3.578-1.215l3.05-1.249a1.321 1.321 0 00-1.27-.714 1.877 1.877 0 00-1.305.61 1.847 1.847 0 00-.475 1.353z" fill="#fff"/><path d="M7.676 8.595L.068 16.504a2.043 2.043 0 001.21 1.341 2.078 2.078 0 001.812-.126l8.56-4.838-3.974-4.286z" fill="#EA4335"/><path d="M15.37 7.25l-3.703-2.103L7.5 8.775l4.184 4.095 3.674-2.081a2.02 2.02 0 00.788-.735 1.986 1.986 0 00-.788-2.803h.011z" fill="#FBBC04"/><path d="M.068 1.496A1.932 1.932 0 000 2.014v13.972c0 .175.023.349.068.518l7.869-7.706L.068 1.496z" fill="#4285F4"/><path d="M7.733 9l3.934-3.853-8.55-4.86A2.122 2.122 0 002.058 0C1.608 0 1.17.144.81.413a2.05 2.05 0 00-.742 1.078L7.733 9z" fill="#34A853"/></svg>