<svg width="140" height="130" fill="none" xmlns="http://www.w3.org/2000/svg"><path fill-rule="evenodd" clip-rule="evenodd" d="M80.567 27.741c.619 1.204 12.387 11.472 16.263 9.575 5.852-2.864 4.32-33.227 1.865-36.716-2.579 13.554-14.745 15.797-18.128 27.141zM64.266 81.965c-.207 1.391.147 2.778.802 3.986.394.073 1.002.482 1.576 1.095.642.686 1.045 1.42 1.036 1.826.796.54 1.616.855 2.326.854.683-.002 1.46-.3 2.219-.812-.04-.397.367-1.157 1.033-1.868.593-.634 1.223-1.049 1.615-1.102.655-1.203 1.03-2.582.881-3.961-3.18-2.241-8.318-2.443-11.488-.018zm21.186-4.987c1.802-8.65 13.46-7.236 15.847-17.676.216-.946 1.169-7.956 1.218-9.112-1.541 8.134-2.235 12.738-10.4 18.158-2.854 1.895-5.76 3.078-6.665 8.63z" fill="#fff"/><path fill-rule="evenodd" clip-rule="evenodd" d="M77.452 68.759c1.971-8.52 4.582-10.211 5.124-10.477 3.171-1.56 6.407-3.412 9.546-5.089l4.02-6.87c-1.023 3.969-1.695 7.106-2.801 11.003-.34 1.199-.544 1.808-1.313 2.73-.887 1.063-2.632 2.998-4.327 3.98-2.411 1.395-7.436 3.22-7.436 3.22l-2.813 1.503z" fill="#CFCFCF"/><mask id="mask0_74_338" style="mask-type:luminance" maskUnits="userSpaceOnUse" x="77" y="46" width="20" height="23"><path d="M77.452 68.759c1.971-8.52 4.582-10.211 5.124-10.477 3.171-1.56 6.407-3.412 9.546-5.089l4.02-6.87c-1.023 3.969-1.695 7.106-2.801 11.003-.34 1.199-.544 1.808-1.313 2.73-.887 1.063-2.632 2.998-4.327 3.98-2.411 1.395-7.436 3.22-7.436 3.22l-2.813 1.503z" fill="#fff"/></mask><g mask="url(#mask0_74_338)"><path fill-rule="evenodd" clip-rule="evenodd" d="M85.95 56.549c2.306 0 4.176 1.997 4.176 4.46s-1.87 4.46-4.175 4.46c-2.306 0-4.175-1.997-4.175-4.46s1.87-4.46 4.175-4.46z" fill="#F26B35"/><mask id="mask1_74_338" style="mask-type:luminance" maskUnits="userSpaceOnUse" x="81" y="56" width="10" height="10"><path d="M85.95 56.549c2.306 0 4.176 1.997 4.176 4.46 0 .442-.061.87-.173 1.273-.705.668-1.484 1.309-2.252 1.753-.729.422-1.696.883-2.69 1.32-1.853-.455-3.235-2.228-3.235-4.346 0-1.053.342-2.02.912-2.783a114.697 114.697 0 003.249-1.677h.014z" fill="#fff"/></mask><g mask="url(#mask1_74_338)"><path fill-rule="evenodd" clip-rule="evenodd" d="M88.622 57.438a4.639 4.639 0 011.496 2.659c.465 2.488-1.047 4.907-3.375 5.404-1.748.372-3.459-.443-4.4-1.924.96.838 2.25 1.227 3.562.948 2.329-.497 3.84-2.917 3.375-5.405a4.75 4.75 0 00-.658-1.682z" fill="#C95C31"/></g></g><path fill-rule="evenodd" clip-rule="evenodd" d="M62.556 68.759c-2.21-9.554-5.225-10.52-5.225-10.52l-9.446-5.046-4.02-6.87c1.023 3.969 1.696 7.106 2.801 11.003.34 1.199.545 1.808 1.313 2.73.887 1.063 2.632 2.998 4.327 3.98 2.412 1.395 7.436 3.22 7.436 3.22l2.814 1.503zM59.44 27.741c-.618 1.204-12.386 11.472-16.263 9.575C37.325 34.452 38.857 4.089 41.312.6c2.58 13.554 14.746 15.797 18.129 27.141zm33.3 33.1c-2.557 3.982-7.641 6.946-12.248 7.88-.699.141-1.303.788-2.329 1.193.669-.422 1.62-1.27 2.337-1.515 4.182-1.424 9.213-4.264 12.24-7.558zm-5.708-.095c.008.057.011.114.011.173 0 .706-.535 1.277-1.195 1.277s-1.195-.571-1.195-1.277c0-.532.305-.988.738-1.18.08.623.58 1.104 1.184 1.104.162 0 .317-.035.457-.097z" fill="#fff"/><path d="M86.35 60.354c.333 0 .602-.289.602-.644 0-.356-.27-.644-.602-.644-.333 0-.603.288-.603.644 0 .355.27.644.603.644z" fill="#FEFEFE"/><path fill-rule="evenodd" clip-rule="evenodd" d="M54.555 76.978c-1.801-8.65-13.46-7.236-15.846-17.676-.216-.946-1.169-7.956-1.219-9.112 1.541 8.134 2.236 12.738 10.4 18.158 2.855 1.895 5.76 3.078 6.665 8.63z" fill="#fff"/><path d="M86.937 60.523c.09 0 .164-.078.164-.175 0-.096-.074-.175-.164-.175-.09 0-.164.079-.164.175 0 .097.074.175.164.175z" fill="#FEFEFE"/><path fill-rule="evenodd" clip-rule="evenodd" d="M92.291 53.55l3.85-7.227-4.019 6.87a159336 159336 0 01-9.445 5.045c-1.089.46-2.036 1.895-2.868 3.477-.946 1.8-1.732 4.148-2.357 7.044 1.62-4.476 3.406-7.654 5.355-9.534l9.484-5.675z" fill="#C95C31"/><path d="M6.655 121.324c.875 0 1.58-.705 1.58-1.586 0-.875-.705-1.579-1.58-1.579h-.517v-19.89c0-.874-.705-1.58-1.586-1.58H2.286c-.881 0-1.586.706-1.586 1.58 0 1.31.928 1.586 2.273 1.586v19.883c0 .881.704 1.586 1.58 1.586h2.102zm21.486.053c.875 0 1.58-.705 1.58-1.586v-8.908c0-4.269-3.477-7.745-7.74-7.745h-2.584c-4.263 0-7.722 3.476-7.722 7.745v8.908a1.58 1.58 0 001.586 1.586c.875 0 1.58-.705 1.58-1.586v-8.908a4.57 4.57 0 014.556-4.563h2.584a4.567 4.567 0 014.557 4.563v8.908c0 .881.722 1.586 1.603 1.586zm6.606 0c.875 0 1.597-.705 1.597-1.586V98.27c0-.875-.722-1.58-1.597-1.58-.88 0-1.585.705-1.585 1.58v21.521a1.58 1.58 0 001.585 1.586zm7 0c.875 0 1.585-.723 1.585-1.604v-14.979c0-.881-.71-1.586-1.585-1.586s-1.598.705-1.598 1.586v14.979c0 .881.723 1.604 1.598 1.604zm-.124-19.872a1.83 1.83 0 001.827-1.838c0-1.016-.81-1.826-1.827-1.826a1.83 1.83 0 00-1.838 1.826c0 1.01.828 1.838 1.838 1.838zm10.224 4.815h19.301v7.141c0 1.392.341 2.683 1.052 3.852a8.012 8.012 0 002.765 2.824 7.938 7.938 0 003.888 1.152h2.654a7.937 7.937 0 003.887-1.152 8.21 8.21 0 002.784-2.824 7.483 7.483 0 001.033-3.852v-2.889a1.54 1.54 0 00-.499-1.104 1.59 1.59 0 00-1.115-.429h-.036a1.59 1.59 0 00-1.086.482 1.543 1.543 0 00-.446 1.104v2.836c0 1.239-.429 2.308-1.31 3.2-.875.893-1.979 1.374-3.265 1.445h-2.53c-1.293-.071-2.39-.552-3.271-1.445-.875-.892-1.322-1.961-1.322-3.2v-7.141h2.837c.428 0 .81-.152 1.121-.481.306-.305.464-.687.464-1.116 0-.429-.158-.81-.464-1.122a1.563 1.563 0 00-1.121-.463H51.847c-1.363 0-2.531.481-3.494 1.444-.98.963-1.462 2.138-1.462 3.494v.828c0 1.356.481 2.525 1.462 3.488.963.969 2.131 1.451 3.494 1.451h8.362c.616 0 1.15.205 1.58.634.428.428.64.945.64 1.55a2.07 2.07 0 01-.64 1.527 2.142 2.142 0 01-1.563.658H48.834c-.428 0-.81.152-1.115.463a1.528 1.528 0 00-.464 1.116c0 .429.152.81.464 1.122a1.54 1.54 0 001.115.464h11.392c1.474 0 2.749-.517 3.8-1.568 1.05-1.051 1.585-2.302 1.585-3.782s-.534-2.736-1.585-3.787c-1.051-1.052-2.326-1.563-3.8-1.563h-8.38c-.498 0-.915-.176-1.256-.516a1.699 1.699 0 01-.517-1.257v-.828c0-.481.17-.893.517-1.239.34-.341.758-.517 1.257-.517zm42.767 15.057c.875 0 1.585-.723 1.585-1.604v-14.979c0-.881-.71-1.586-1.585-1.586s-1.598.705-1.598 1.586v14.979c0 .881.723 1.604 1.598 1.604zm-.123-19.872a1.83 1.83 0 001.826-1.838c0-1.016-.81-1.826-1.826-1.826a1.83 1.83 0 00-1.839 1.826c0 1.01.828 1.838 1.839 1.838zm21.732 19.872c.875 0 1.58-.705 1.58-1.586v-8.908c0-4.269-3.476-7.745-7.739-7.745h-2.584c-4.264 0-7.722 3.476-7.722 7.745v8.908a1.58 1.58 0 001.585 1.586c.875 0 1.58-.705 1.58-1.586v-8.908a4.57 4.57 0 014.557-4.563h2.584a4.566 4.566 0 014.556 4.563v8.908c0 .881.722 1.586 1.603 1.586zm16.442 8.017c3.647 0 6.642-2.977 6.642-6.641v-11.788c0-4.21-3.457-7.845-7.704-7.845h-2.649c-4.251.123-7.71 3.635-7.71 7.845v2.566c0 4.264 3.476 7.74 7.739 7.74h2.584a7.66 7.66 0 004.557-1.498v2.98a3.458 3.458 0 01-3.459 3.459h-8.843c-.875 0-1.58.722-1.58 1.597 0 .881.705 1.585 1.58 1.585h8.843zm-1.098-11.288h-2.584c-2.507 0-4.556-2.044-4.556-4.575v-2.566c0-2.49 2.049-4.574 4.574-4.662h2.531c2.531.088 4.592 2.172 4.592 4.662v2.566a4.565 4.565 0 01-4.557 4.575z" fill="#fff"/><mask id="mask2_74_338" style="mask-type:luminance" maskUnits="userSpaceOnUse" x="0" y="96" width="140" height="34"><path d="M6.655 121.324c.875 0 1.58-.705 1.58-1.586 0-.875-.705-1.579-1.58-1.579h-.517v-19.89c0-.874-.705-1.58-1.586-1.58H2.286c-.881 0-1.586.706-1.586 1.58 0 1.31.928 1.586 2.273 1.586v19.883c0 .881.704 1.586 1.58 1.586h2.102zm21.486.053c.875 0 1.58-.705 1.58-1.586v-8.908c0-4.269-3.477-7.745-7.74-7.745h-2.584c-4.263 0-7.722 3.476-7.722 7.745v8.908a1.58 1.58 0 001.586 1.586c.875 0 1.58-.705 1.58-1.586v-8.908a4.57 4.57 0 014.556-4.563h2.584a4.567 4.567 0 014.557 4.563v8.908c0 .881.722 1.586 1.603 1.586zm6.606 0c.875 0 1.597-.705 1.597-1.586V98.27c0-.875-.722-1.58-1.597-1.58-.88 0-1.585.705-1.585 1.58v21.521a1.58 1.58 0 001.585 1.586zm7 0c.875 0 1.585-.723 1.585-1.604v-14.979c0-.881-.71-1.586-1.585-1.586s-1.598.705-1.598 1.586v14.979c0 .881.723 1.604 1.598 1.604zm-.124-19.872a1.83 1.83 0 001.827-1.838c0-1.016-.81-1.826-1.827-1.826a1.83 1.83 0 00-1.838 1.826c0 1.01.828 1.838 1.838 1.838zm10.224 4.815h19.301v7.141c0 1.392.341 2.683 1.052 3.852a8.012 8.012 0 002.765 2.824 7.938 7.938 0 003.888 1.152h2.654a7.937 7.937 0 003.887-1.152 8.21 8.21 0 002.784-2.824 7.483 7.483 0 001.033-3.852v-2.889a1.54 1.54 0 00-.499-1.104 1.59 1.59 0 00-1.115-.429h-.036a1.59 1.59 0 00-1.086.482 1.543 1.543 0 00-.446 1.104v2.836c0 1.239-.429 2.308-1.31 3.2-.875.893-1.979 1.374-3.265 1.445h-2.53c-1.293-.071-2.39-.552-3.271-1.445-.875-.892-1.322-1.961-1.322-3.2v-7.141h2.837c.428 0 .81-.152 1.121-.481.306-.305.464-.687.464-1.116 0-.429-.158-.81-.464-1.122a1.563 1.563 0 00-1.121-.463H51.847c-1.363 0-2.531.481-3.494 1.444-.98.963-1.462 2.138-1.462 3.494v.828c0 1.356.481 2.525 1.462 3.488.963.969 2.131 1.451 3.494 1.451h8.362c.616 0 1.15.205 1.58.634.428.428.64.945.64 1.55a2.07 2.07 0 01-.64 1.527 2.142 2.142 0 01-1.563.658H48.834c-.428 0-.81.152-1.115.463a1.528 1.528 0 00-.464 1.116c0 .429.152.81.464 1.122a1.54 1.54 0 001.115.464h11.392c1.474 0 2.749-.517 3.8-1.568 1.05-1.051 1.585-2.302 1.585-3.782s-.534-2.736-1.585-3.787c-1.051-1.052-2.326-1.563-3.8-1.563h-8.38c-.498 0-.915-.176-1.256-.516a1.699 1.699 0 01-.517-1.257v-.828c0-.481.17-.893.517-1.239.34-.341.758-.517 1.257-.517zm42.767 15.057c.875 0 1.585-.723 1.585-1.604v-14.979c0-.881-.71-1.586-1.585-1.586s-1.598.705-1.598 1.586v14.979c0 .881.723 1.604 1.598 1.604zm-.123-19.872a1.83 1.83 0 001.826-1.838c0-1.016-.81-1.826-1.826-1.826a1.83 1.83 0 00-1.839 1.826c0 1.01.828 1.838 1.839 1.838zm21.732 19.872c.875 0 1.58-.705 1.58-1.586v-8.908c0-4.269-3.476-7.745-7.739-7.745h-2.584c-4.264 0-7.722 3.476-7.722 7.745v8.908a1.58 1.58 0 001.585 1.586c.875 0 1.58-.705 1.58-1.586v-8.908a4.57 4.57 0 014.557-4.563h2.584a4.566 4.566 0 014.556 4.563v8.908c0 .881.722 1.586 1.603 1.586zm16.442 8.017c3.647 0 6.642-2.977 6.642-6.641v-11.788c0-4.21-3.457-7.845-7.704-7.845h-2.649c-4.251.123-7.71 3.635-7.71 7.845v2.566c0 4.264 3.476 7.74 7.739 7.74h2.584a7.66 7.66 0 004.557-1.498v2.98a3.458 3.458 0 01-3.459 3.459h-8.843c-.875 0-1.58.722-1.58 1.597 0 .881.705 1.585 1.58 1.585h8.843zm-1.098-11.288h-2.584c-2.507 0-4.556-2.044-4.556-4.575v-2.566c0-2.49 2.049-4.574 4.574-4.662h2.531c2.531.088 4.592 2.172 4.592 4.662v2.566a4.565 4.565 0 01-4.557 4.575z" fill="#fff"/></mask><g mask="url(#mask2_74_338)" fill="#F26B35"><path d="M42.038 101.901c1.722 0 3.119-1.135 3.119-2.534 0-1.4-1.397-2.535-3.12-2.535-1.722 0-3.118 1.135-3.118 2.535 0 1.399 1.396 2.534 3.119 2.534zm51.917.585c2.01 0 3.639-1.382 3.639-3.087 0-1.704-1.63-3.086-3.639-3.086-2.01 0-3.639 1.382-3.639 3.086 0 1.705 1.63 3.087 3.64 3.087z"/></g><path d="M77.925 129.426h1.014v-2.752h.797v-.87h-2.608v.87h.797v2.752zm2.173 0h1.014v-1.195l.766 1.195h1.226l-1.014-1.448c.341-.119.76-.404.76-1.087 0-.166-.04-1.087-1.252-1.087h-1.5v3.622zm1.014-1.992v-.833h.249c.362 0 .475.213.475.414 0 .212-.113.419-.475.419h-.249zm3.876 2.096c1.51 0 1.593-1.18 1.593-1.568v-2.158h-1.014v2.137c0 .223-.041.72-.58.72-.538 0-.579-.497-.579-.72v-2.137h-1.014v2.158c0 .388.083 1.568 1.594 1.568zm4.475-3.472a1.883 1.883 0 00-1.102-.357c-.848 0-1.273.507-1.273 1.092 0 .781.575.983.864 1.071.383.119.694.16.694.491 0 .218-.17.306-.357.306-.3 0-.616-.207-.9-.482l-.482.772c.523.424.89.579 1.356.579.849 0 1.36-.471 1.36-1.19 0-.854-.594-1.087-1.127-1.211-.181-.041-.43-.103-.43-.321 0-.129.073-.31.378-.31.259 0 .486.165.657.321l.362-.761zm1.139 3.368h1.014v-2.752h.797v-.87h-2.608v.87h.797v2.752zm3.378-3.622v3.622h1.853c.838 0 1.185-.501 1.185-1.009 0-.662-.528-.869-.766-.926v-.01c.295-.104.564-.373.564-.756 0-.279-.098-.921-1.082-.921H93.98zm1.015 1.429v-.704h.424c.346 0 .466.171.466.362 0 .135-.068.342-.466.342h-.424zm0 1.469v-.745h.465c.166 0 .543 0 .543.362 0 .378-.388.383-.543.383h-.465zm4.051.828c1.511 0 1.594-1.18 1.594-1.568v-2.158h-1.014v2.137c0 .223-.042.72-.58.72-.538 0-.58-.497-.58-.72v-2.137h-1.014v2.158c0 .388.083 1.568 1.594 1.568zm2.716-.104h1.015v-2.752h.797v-.87h-2.608v.87h.796v2.752zm6.049-1.195c-.186.192-.481.393-.859.393-.579 0-.926-.429-.926-.977 0-.596.367-1.041.926-1.041.388 0 .673.218.859.435v-1.05a1.792 1.792 0 00-.993-.29c-.983 0-1.837.704-1.837 1.915 0 1.158.776 1.914 1.852 1.914.311 0 .652-.047.978-.269v-1.03zm.507 1.195h1.015v-1.448h1.231v1.448h1.014v-3.622h-1.014v1.304h-1.231v-1.304h-1.015v3.622zm3.912 0h2.173v-.869h-1.159v-.579h1.051v-.797h-1.051v-.507h1.159v-.87h-2.173v3.622zm5.387-1.195c-.187.192-.482.393-.859.393-.58 0-.927-.429-.927-.977 0-.596.368-1.041.927-1.041.388 0 .672.218.859.435v-1.05a1.798 1.798 0 00-.994-.29c-.983 0-1.837.704-1.837 1.915 0 1.158.777 1.914 1.853 1.914.31 0 .652-.047.978-.269v-1.03zm.507 1.195h1.014v-1.557l1.05 1.557h1.268l-1.413-1.867 1.377-1.755h-1.19l-1.092 1.522v-1.522h-1.014v3.622z" fill="#F58634"/></svg>