<svg width="140" height="44" fill="none" xmlns="http://www.w3.org/2000/svg"><g clip-path="url(#clip0_204_66)"><path d="M6.655 30.324c.875 0 1.58-.705 1.58-1.586 0-.875-.705-1.58-1.58-1.58h-.517V7.27c0-.875-.705-1.58-1.586-1.58H2.286C1.405 5.69.7 6.395.7 7.27c0 1.31.928 1.585 2.273 1.585v19.883c0 .881.704 1.586 1.58 1.586h2.102zm21.486.053c.875 0 1.58-.705 1.58-1.586v-8.908c0-4.27-3.477-7.745-7.74-7.745h-2.584c-4.263 0-7.722 3.476-7.722 7.745v8.908c0 .88.705 1.586 1.586 1.586.875 0 1.58-.705 1.58-1.586v-8.908a4.57 4.57 0 014.556-4.563h2.584a4.566 4.566 0 014.557 4.563v8.908c0 .88.722 1.586 1.603 1.586zm6.606 0c.875 0 1.597-.705 1.597-1.586V7.27c0-.875-.722-1.58-1.597-1.58-.88 0-1.585.705-1.585 1.58v21.52c0 .88.704 1.586 1.585 1.586zm7 0c.875 0 1.585-.723 1.585-1.604v-14.98c0-.88-.71-1.585-1.585-1.585s-1.598.705-1.598 1.586v14.98c0 .88.723 1.603 1.598 1.603zm-.124-19.872a1.83 1.83 0 001.827-1.838c0-1.016-.81-1.826-1.827-1.826a1.83 1.83 0 00-1.838 1.826c0 1.01.828 1.838 1.838 1.838zm10.224 4.815h19.301v7.14c0 1.392.341 2.684 1.052 3.853a8.014 8.014 0 002.765 2.824 7.938 7.938 0 003.888 1.151h2.654a7.938 7.938 0 003.887-1.15 8.212 8.212 0 002.784-2.825 7.483 7.483 0 001.033-3.852v-2.89a1.543 1.543 0 00-.499-1.103 1.591 1.591 0 00-1.115-.429h-.036a1.59 1.59 0 00-1.086.482 1.54 1.54 0 00-.446 1.104v2.836c0 1.239-.429 2.308-1.31 3.2-.875.893-1.979 1.374-3.265 1.445h-2.53c-1.293-.07-2.39-.552-3.271-1.445-.875-.892-1.322-1.961-1.322-3.2v-7.14h2.837c.428 0 .81-.153 1.121-.482a1.54 1.54 0 00.464-1.116c0-.429-.158-.81-.464-1.122a1.563 1.563 0 00-1.121-.463H51.847c-1.363 0-2.531.481-3.494 1.444-.98.963-1.462 2.138-1.462 3.494v.828c0 1.357.481 2.525 1.462 3.488.963.969 2.131 1.45 3.494 1.45h8.362c.616 0 1.15.206 1.58.635.428.428.64.945.64 1.55a2.07 2.07 0 01-.64 1.527 2.14 2.14 0 01-1.563.658H48.834c-.428 0-.81.152-1.115.463a1.526 1.526 0 00-.464 1.116c0 .429.152.81.464 1.122a1.54 1.54 0 001.115.464h11.392c1.474 0 2.749-.517 3.8-1.568 1.05-1.051 1.585-2.302 1.585-3.782s-.534-2.736-1.585-3.788c-1.051-1.05-2.326-1.562-3.8-1.562h-8.38c-.498 0-.915-.176-1.256-.516a1.697 1.697 0 01-.517-1.257v-.828c0-.482.17-.893.517-1.239a1.71 1.71 0 011.257-.517zm42.767 15.057c.875 0 1.585-.723 1.585-1.604v-14.98c0-.88-.71-1.585-1.585-1.585s-1.598.705-1.598 1.586v14.98c0 .88.723 1.603 1.598 1.603zm-.123-19.872a1.83 1.83 0 001.826-1.838c0-1.016-.81-1.826-1.826-1.826a1.83 1.83 0 00-1.839 1.826c0 1.01.828 1.838 1.839 1.838zm21.732 19.872c.875 0 1.58-.705 1.58-1.586v-8.908c0-4.27-3.476-7.745-7.739-7.745h-2.584c-4.264 0-7.722 3.476-7.722 7.745v8.908c0 .88.705 1.586 1.585 1.586.875 0 1.58-.705 1.58-1.586v-8.908a4.57 4.57 0 014.557-4.563h2.584a4.566 4.566 0 014.556 4.563v8.908c0 .88.722 1.586 1.603 1.586zm16.442 8.017c3.647 0 6.642-2.977 6.642-6.641V19.965c0-4.21-3.457-7.845-7.704-7.845h-2.649c-4.251.123-7.71 3.635-7.71 7.845v2.566c0 4.264 3.476 7.74 7.739 7.74h2.584a7.663 7.663 0 004.557-1.498v2.98a3.457 3.457 0 01-3.459 3.459h-8.843c-.875 0-1.58.722-1.58 1.597 0 .88.705 1.585 1.58 1.585h8.843zm-1.098-11.288h-2.584c-2.507 0-4.556-2.044-4.556-4.575v-2.566c0-2.49 2.049-4.574 4.574-4.662h2.531c2.531.088 4.592 2.172 4.592 4.662v2.566a4.565 4.565 0 01-4.557 4.575z" fill="#fff"/><mask id="mask0_204_66" style="mask-type:luminance" maskUnits="userSpaceOnUse" x="0" y="5" width="140" height="34"><path d="M6.655 30.324c.875 0 1.58-.705 1.58-1.586 0-.875-.705-1.58-1.58-1.58h-.517V7.27c0-.875-.705-1.58-1.586-1.58H2.286C1.405 5.69.7 6.395.7 7.27c0 1.31.928 1.585 2.273 1.585v19.883c0 .881.704 1.586 1.58 1.586h2.102zm21.486.053c.875 0 1.58-.705 1.58-1.586v-8.908c0-4.27-3.477-7.745-7.74-7.745h-2.584c-4.263 0-7.722 3.476-7.722 7.745v8.908c0 .88.705 1.586 1.586 1.586.875 0 1.58-.705 1.58-1.586v-8.908a4.57 4.57 0 014.556-4.563h2.584a4.566 4.566 0 014.557 4.563v8.908c0 .88.722 1.586 1.603 1.586zm6.606 0c.875 0 1.597-.705 1.597-1.586V7.27c0-.875-.722-1.58-1.597-1.58-.88 0-1.585.705-1.585 1.58v21.52c0 .88.704 1.586 1.585 1.586zm7 0c.875 0 1.585-.723 1.585-1.604v-14.98c0-.88-.71-1.585-1.585-1.585s-1.598.705-1.598 1.586v14.98c0 .88.723 1.603 1.598 1.603zm-.124-19.872a1.83 1.83 0 001.827-1.838c0-1.016-.81-1.826-1.827-1.826a1.83 1.83 0 00-1.838 1.826c0 1.01.828 1.838 1.838 1.838zm10.224 4.815h19.301v7.14c0 1.392.341 2.684 1.052 3.853a8.014 8.014 0 002.765 2.824 7.938 7.938 0 003.888 1.151h2.654a7.938 7.938 0 003.887-1.15 8.212 8.212 0 002.784-2.825 7.483 7.483 0 001.033-3.852v-2.89a1.543 1.543 0 00-.499-1.103 1.591 1.591 0 00-1.115-.429h-.036a1.59 1.59 0 00-1.086.482 1.54 1.54 0 00-.446 1.104v2.836c0 1.239-.429 2.308-1.31 3.2-.875.893-1.979 1.374-3.265 1.445h-2.53c-1.293-.07-2.39-.552-3.271-1.445-.875-.892-1.322-1.961-1.322-3.2v-7.14h2.837c.428 0 .81-.153 1.121-.482a1.54 1.54 0 00.464-1.116c0-.429-.158-.81-.464-1.122a1.563 1.563 0 00-1.121-.463H51.847c-1.363 0-2.531.481-3.494 1.444-.98.963-1.462 2.138-1.462 3.494v.828c0 1.357.481 2.525 1.462 3.488.963.969 2.131 1.45 3.494 1.45h8.362c.616 0 1.15.206 1.58.635.428.428.64.945.64 1.55a2.07 2.07 0 01-.64 1.527 2.14 2.14 0 01-1.563.658H48.834c-.428 0-.81.152-1.115.463a1.526 1.526 0 00-.464 1.116c0 .429.152.81.464 1.122a1.54 1.54 0 001.115.464h11.392c1.474 0 2.749-.517 3.8-1.568 1.05-1.051 1.585-2.302 1.585-3.782s-.534-2.736-1.585-3.788c-1.051-1.05-2.326-1.562-3.8-1.562h-8.38c-.498 0-.915-.176-1.256-.516a1.697 1.697 0 01-.517-1.257v-.828c0-.482.17-.893.517-1.239a1.71 1.71 0 011.257-.517zm42.767 15.057c.875 0 1.585-.723 1.585-1.604v-14.98c0-.88-.71-1.585-1.585-1.585s-1.598.705-1.598 1.586v14.98c0 .88.723 1.603 1.598 1.603zm-.123-19.872a1.83 1.83 0 001.826-1.838c0-1.016-.81-1.826-1.826-1.826a1.83 1.83 0 00-1.839 1.826c0 1.01.828 1.838 1.839 1.838zm21.732 19.872c.875 0 1.58-.705 1.58-1.586v-8.908c0-4.27-3.476-7.745-7.739-7.745h-2.584c-4.264 0-7.722 3.476-7.722 7.745v8.908c0 .88.705 1.586 1.585 1.586.875 0 1.58-.705 1.58-1.586v-8.908a4.57 4.57 0 014.557-4.563h2.584a4.566 4.566 0 014.556 4.563v8.908c0 .88.722 1.586 1.603 1.586zm16.442 8.017c3.647 0 6.642-2.977 6.642-6.641V19.965c0-4.21-3.457-7.845-7.704-7.845h-2.649c-4.251.123-7.71 3.635-7.71 7.845v2.566c0 4.264 3.476 7.74 7.739 7.74h2.584a7.663 7.663 0 004.557-1.498v2.98a3.457 3.457 0 01-3.459 3.459h-8.843c-.875 0-1.58.722-1.58 1.597 0 .88.705 1.585 1.58 1.585h8.843zm-1.098-11.288h-2.584c-2.507 0-4.556-2.044-4.556-4.575v-2.566c0-2.49 2.049-4.574 4.574-4.662h2.531c2.531.088 4.592 2.172 4.592 4.662v2.566a4.565 4.565 0 01-4.557 4.575z" fill="#fff"/></mask><g mask="url(#mask0_204_66)" fill="#F26B35"><path d="M42.038 10.9c1.722 0 3.119-1.134 3.119-2.533 0-1.4-1.397-2.534-3.12-2.534-1.722 0-3.118 1.134-3.118 2.534s1.396 2.534 3.119 2.534zm51.917.586c2.01 0 3.639-1.382 3.639-3.087 0-1.704-1.63-3.086-3.639-3.086-2.01 0-3.639 1.382-3.639 3.086 0 1.705 1.63 3.087 3.64 3.087z"/></g><path d="M77.925 38.426h1.014v-2.752h.797v-.87h-2.608v.87h.797v2.752zm2.173 0h1.014v-1.195l.766 1.195h1.226l-1.014-1.448c.341-.12.76-.404.76-1.087 0-.166-.04-1.087-1.252-1.087h-1.5v3.622zm1.014-1.992v-.833h.249c.362 0 .475.212.475.414 0 .212-.113.42-.475.42h-.249zm3.876 2.096c1.51 0 1.593-1.18 1.593-1.568v-2.158h-1.014v2.137c0 .223-.041.72-.58.72-.538 0-.579-.497-.579-.72v-2.137h-1.014v2.158c0 .388.083 1.568 1.594 1.568zm4.475-3.472a1.886 1.886 0 00-1.102-.357c-.848 0-1.273.507-1.273 1.092 0 .781.575.983.864 1.07.383.12.694.161.694.492 0 .218-.17.306-.357.306-.3 0-.616-.207-.9-.482l-.482.771c.523.425.89.58 1.356.58.849 0 1.36-.47 1.36-1.19 0-.854-.594-1.087-1.127-1.21-.181-.042-.43-.105-.43-.322 0-.129.073-.31.378-.31.259 0 .486.165.657.32l.362-.76zm1.139 3.368h1.014v-2.752h.797v-.87h-2.608v.87h.797v2.752zm3.378-3.622v3.622h1.853c.838 0 1.185-.501 1.185-1.009 0-.662-.528-.869-.766-.926v-.01c.295-.104.564-.373.564-.756 0-.279-.098-.92-1.082-.92H93.98zm1.015 1.428v-.703h.424c.346 0 .466.17.466.362 0 .135-.068.342-.466.342h-.424zm0 1.47v-.745h.465c.166 0 .543 0 .543.362 0 .378-.388.383-.543.383h-.465zm4.051.828c1.511 0 1.594-1.18 1.594-1.568v-2.158h-1.014v2.137c0 .223-.042.72-.58.72-.538 0-.58-.497-.58-.72v-2.137h-1.014v2.158c0 .388.083 1.568 1.594 1.568zm2.716-.104h1.015v-2.752h.797v-.87h-2.608v.87h.796v2.752zm6.049-1.195c-.186.192-.481.393-.859.393-.579 0-.926-.429-.926-.977 0-.596.367-1.04.926-1.04.388 0 .673.217.859.434v-1.05a1.792 1.792 0 00-.993-.29c-.983 0-1.837.704-1.837 1.915 0 1.159.776 1.914 1.852 1.914.311 0 .652-.047.978-.27v-1.029zm.507 1.195h1.015v-1.448h1.231v1.448h1.014v-3.622h-1.014v1.304h-1.231v-1.304h-1.015v3.622zm3.912 0h2.173v-.869h-1.159v-.58h1.051v-.796h-1.051v-.507h1.159v-.87h-2.173v3.622zm5.387-1.195c-.187.192-.482.393-.859.393-.58 0-.927-.429-.927-.977 0-.596.368-1.04.927-1.04.388 0 .672.217.859.434v-1.05a1.797 1.797 0 00-.994-.29c-.983 0-1.837.704-1.837 1.915 0 1.159.777 1.914 1.853 1.914.31 0 .652-.047.978-.27v-1.029zm.507 1.195h1.014V36.87l1.05 1.557h1.268l-1.413-1.867 1.377-1.755h-1.19l-1.092 1.522v-1.522h-1.014v3.622z" fill="#F58634"/></g><defs><clipPath id="clip0_204_66"><path fill="#fff" d="M0 0h140v44H0z"/></clipPath></defs></svg>