<svg width="20" height="20" fill="none" xmlns="http://www.w3.org/2000/svg"><g clip-path="url(#clip0_74_313)"><path d="M6.667 10a3.333 3.333 0 116.667 0 3.333 3.333 0 01-6.667 0zm-1.802 0a5.135 5.135 0 1010.27 0 5.135 5.135 0 00-10.27 0zm9.273-5.338a1.2 1.2 0 102.401 0 1.2 1.2 0 00-2.4 0zM5.96 18.14c-.975-.045-1.505-.207-1.857-.344a3.11 3.11 0 01-1.15-.748 3.091 3.091 0 01-.749-1.15c-.137-.352-.3-.882-.344-1.857-.048-1.054-.058-1.37-.058-4.041 0-2.67.01-2.986.058-4.041.045-.975.208-1.504.344-1.857.182-.467.399-.8.748-1.15a3.08 3.08 0 011.15-.748c.353-.138.883-.3 1.858-.345 1.054-.048 1.37-.058 4.04-.058s2.986.01 4.041.058c.975.045 1.504.208 1.857.345.467.18.8.398 1.15.748.35.35.567.683.748 1.15.138.352.3.882.345 1.857.048 1.055.058 1.37.058 4.041 0 2.67-.01 2.986-.059 4.041-.044.975-.207 1.505-.344 1.857-.181.467-.398.8-.747 1.15-.35.35-.684.566-1.15.748-.353.137-.883.3-1.858.344-1.054.048-1.37.058-4.041.058-2.67 0-2.986-.01-4.04-.058zM5.877.06C4.813.11 4.086.279 3.45.526A4.907 4.907 0 001.679 1.68 4.894 4.894 0 00.525 3.45C.278 4.087.109 4.814.061 5.878.01 6.943 0 7.284 0 10s.011 3.056.06 4.123c.049 1.064.218 1.791.465 2.427a4.89 4.89 0 001.154 1.771 4.905 4.905 0 001.77 1.154c.637.247 1.364.416 2.428.464C6.944 19.988 7.284 20 10 20s3.056-.011 4.123-.06c1.064-.049 1.791-.218 2.427-.465a4.92 4.92 0 001.771-1.154 4.912 4.912 0 001.154-1.77c.247-.637.417-1.364.464-2.428.049-1.067.06-1.407.06-4.123s-.011-3.057-.06-4.123c-.048-1.064-.217-1.791-.464-2.427a4.919 4.919 0 00-1.154-1.771 4.904 4.904 0 00-1.77-1.154c-.637-.247-1.364-.417-2.427-.464C13.057.012 12.716 0 10 0 7.284 0 6.944.011 5.877.06z" fill="#fff"/></g><defs><clipPath id="clip0_74_313"><path fill="#fff" d="M0 0h20v20H0z"/></clipPath></defs></svg>