<svg width="21" height="20" fill="none" xmlns="http://www.w3.org/2000/svg"><g clip-path="url(#clip0_74_315)"><path d="M0 2.323C0 1.65.236 1.094.707.657 1.178.219 1.791 0 2.545 0c.741 0 1.34.216 1.798.647.472.444.708 1.023.708 1.737 0 .646-.23 1.185-.687 1.616-.472.445-1.091.667-1.859.667h-.02c-.74 0-1.34-.222-1.798-.667C.229 3.556 0 2.997 0 2.323zM.263 20V6.505h4.484V20H.263zm6.97 0h4.484v-7.535c0-.472.054-.835.162-1.091.188-.458.475-.845.858-1.162.384-.316.866-.475 1.445-.475 1.508 0 2.262 1.017 2.262 3.05V20h4.485v-7.737c0-1.994-.471-3.505-1.414-4.536-.943-1.03-2.188-1.545-3.737-1.545-1.738 0-3.091.747-4.06 2.242v.04h-.021l.02-.04V6.505H7.232c.027.431.04 1.771.04 4.02 0 2.25-.013 5.408-.04 9.475z" fill="#fff"/></g><defs><clipPath id="clip0_74_315"><path fill="#fff" d="M0 0h20.929v20H0z"/></clipPath></defs></svg>