<svg width="20" height="20" fill="none" xmlns="http://www.w3.org/2000/svg"><g clip-path="url(#clip0_74_311)"><path fill-rule="evenodd" clip-rule="evenodd" d="M15.32 18.983a.99.99 0 00.923.12.967.967 0 00.603-.7C17.57 15 19.327 6.386 19.986 3.29a.65.65 0 00-.216-.632.667.667 0 00-.665-.116C15.611 3.835 4.85 7.872.452 9.5a.689.689 0 00-.452.666.69.69 0 00.494.636c1.973.59 4.562 1.411 4.562 1.411s1.21 3.655 1.841 5.513a.73.73 0 00.502.48.722.722 0 00.676-.173c1.014-.956 2.58-2.436 2.58-2.436s2.977 2.183 4.665 3.386zm-9.175-7.231l1.4 4.615.31-2.923 8.488-7.655a.231.231 0 00.027-.314.237.237 0 00-.313-.053l-9.912 6.33z" fill="#fff"/></g><defs><clipPath id="clip0_74_311"><path fill="#fff" d="M0 0h20v20H0z"/></clipPath></defs></svg>