<svg width="20" height="20" fill="none" xmlns="http://www.w3.org/2000/svg"><path fill-rule="evenodd" clip-rule="evenodd" d="M2.5 11.667c.46 0 .833.373.833.833v3.333a.833.833 0 00.833.834h11.667a.833.833 0 00.833-.834V12.5a.833.833 0 111.667 0v3.333a2.5 2.5 0 01-2.5 2.5H4.166a2.5 2.5 0 01-2.5-2.5V12.5c0-.46.373-.833.833-.833zM9.41 1.91a.833.833 0 011.18 0l4.166 4.167a.833.833 0 11-1.179 1.179L10 3.679 6.423 7.256a.833.833 0 11-1.179-1.179l4.167-4.166z" fill="#fff"/><path fill-rule="evenodd" clip-rule="evenodd" d="M10 1.667c.46 0 .833.373.833.833v10a.833.833 0 01-1.667 0v-10c0-.46.373-.833.833-.833z" fill="#fff"/></svg>